<svg xmlns="http://www.w3.org/2000/svg" width="120" height="120" viewBox="0 0 120 120">
  <g id="Red_Bee_Logo" data-name="Red Bee Logo" transform="translate(-1274)">
    <path id="Path_75" data-name="Path 75" d="M0,0H120V120H0Z" transform="translate(1274)" fill="#dc281e"/>
    <g id="Group_60" data-name="Group 60" transform="translate(1292.606 27.224)">
      <path id="Path_43" data-name="Path 43" d="M25.992,20.523a8.308,8.308,0,0,0-2.044-.214H16.24v7.482h7.647a8.864,8.864,0,0,0,1.988-.194A3.467,3.467,0,0,0,28.6,24.029a3.431,3.431,0,0,0-2.61-3.506m1.865,24.02-5.513-11.31h-6.1v11.31H10.078v-29.8H23.8a16.252,16.252,0,0,1,5.256.678,8.591,8.591,0,0,1,6.207,8.668c0,4.305-2.441,7.324-6.462,8.7l6.273,11.749Z" transform="translate(-10.078 -14.744)" fill="#fff"/>
      <path id="Path_44" data-name="Path 44" d="M54.291,20.774a12.585,12.585,0,0,0-2.762-.229H48.617V38.759h2.692a11.983,11.983,0,0,0,3.039-.3c4.206-1.078,6.151-4.542,6.151-8.928,0-4.562-2.036-7.818-6.209-8.762M57.267,43.8a24.816,24.816,0,0,1-7.117.742H42.466v-29.8h7.689a24.4,24.4,0,0,1,7.18.842c6.253,2.11,9.888,7.318,9.888,14.062,0,6.768-3.635,12.1-9.956,14.149" transform="translate(17.327 -14.744)" fill="#fff"/>
      <rect id="Rectangle_80" data-name="Rectangle 80" width="21.47" height="5.886" transform="translate(31.129 0)" fill="#fff"/>
      <rect id="Rectangle_81" data-name="Rectangle 81" width="21.47" height="5.877" transform="translate(31.129 11.964)" fill="#fff"/>
      <rect id="Rectangle_82" data-name="Rectangle 82" width="21.47" height="5.883" transform="translate(31.129 23.916)" fill="#fff"/>
      <path id="Path_45" data-name="Path 45" d="M24.142,51.492H16.2v6.831h7.94c2.664,0,4.276-1.27,4.276-3.469,0-2.075-1.612-3.362-4.276-3.362m-.36-11.636H16.2V46.22h7.761a3.179,3.179,0,0,0,3.478-3.264c0-1.872-1.135-3.1-3.659-3.1M35.071,55c0,4.826-2.749,7.752-7.215,8.658a21.258,21.258,0,0,1-4.368.323H10.078V34.19H23.85a18.007,18.007,0,0,1,4.279.415c3.69.975,5.886,3.572,5.886,7.455,0,3.5-1.722,5.575-3.7,6.441A6.912,6.912,0,0,1,35.071,55" transform="translate(-10.078 1.707)" fill="#fff"/>
      <rect id="Rectangle_83" data-name="Rectangle 83" width="21.47" height="5.882" transform="translate(31.129 35.874)" fill="#fff"/>
      <rect id="Rectangle_84" data-name="Rectangle 84" width="21.47" height="5.87" transform="translate(31.129 47.845)" fill="#fff"/>
      <rect id="Rectangle_85" data-name="Rectangle 85" width="21.47" height="5.88" transform="translate(31.129 59.798)" fill="#fff"/>
      <path id="Path_46" data-name="Path 46" d="M63.931,40.054v-5.87H42.466v5.87h0v6.1h0v5.858h0v6.1h0v5.866H63.931V58.11H48.618v-6.1H63.931V46.156H48.618v-6.1Z" transform="translate(17.327 1.702)" fill="#fff"/>
    </g>
  </g>
</svg>
